<svg id="Energia_Solar_28px" data-name="Energia Solar 28px" xmlns="http://www.w3.org/2000/svg" width="249.191" height="28" viewBox="0 0 249.191 28">
  <g id="Grupo_41" data-name="Grupo 41">
    <g id="Grupo_38" data-name="Grupo 38">
      <g id="Grupo_36" data-name="Grupo 36">
        <path id="Caminho_341" data-name="Caminho 341" d="M29.356,0H18.825L14.69,10.649l6.035.406a1.031,1.031,0,0,1,.858,1.481L14.859,26.354H20.52a8.837,8.837,0,0,0,8.836-8.837Z" fill="#ffcd00"/>
        <path id="Caminho_342" data-name="Caminho 342" d="M15.27,15.505l-6.639-.447a1.033,1.033,0,0,1-.906-1.369L12.832,0H8.681A8.681,8.681,0,0,0,0,8.681V26.354H13.766Z" fill="#ffcd00"/>
      </g>
      <g id="Grupo_37" data-name="Grupo 37">
        <path id="Caminho_343" data-name="Caminho 343" d="M36.734,24.532h0a3.576,3.576,0,0,0,1.145-.592A7.081,7.081,0,0,0,39,22.9a7.964,7.964,0,0,0,.894-1.235,3.487,3.487,0,0,0,.457-1.184q.309-1.44.592-3.21t.54-3.712q.258-1.944.5-3.918T42.46,5.8l.005-.038a3.907,3.907,0,0,1,3.878-3.424H46.8L44.764,16.978q-.194,1.494-.354,2.4t-.251,1.229a7.445,7.445,0,0,1-1.487,2.973,6.091,6.091,0,0,1-2.367,1.685,4.291,4.291,0,0,1-1.444.429c-1.225.039-1.795-.311-2.127-1.162" fill="#9ea700"/>
        <path id="Caminho_344" data-name="Caminho 344" d="M52.175,21.7a4.99,4.99,0,0,1-2.863-.772,4.631,4.631,0,0,1-1.7-2.136,8.257,8.257,0,0,1-.56-3.153,10.118,10.118,0,0,1,.926-4.311A7.552,7.552,0,0,1,50.65,8.16,7.246,7.246,0,0,1,54.8,6.976a5.035,5.035,0,0,1,2.851.752A4.518,4.518,0,0,1,59.33,9.839a8.362,8.362,0,0,1,.553,3.172,10.41,10.41,0,0,1-.9,4.31A7.646,7.646,0,0,1,56.318,20.5a7.162,7.162,0,0,1-4.143,1.2m.541-2.458a2.068,2.068,0,0,0,1.493-.6,4.424,4.424,0,0,0,1-1.57,9.652,9.652,0,0,0,.56-2.11,14.683,14.683,0,0,0,.173-2.22,8.942,8.942,0,0,0-.148-1.718,2.49,2.49,0,0,0-.534-1.19A1.335,1.335,0,0,0,54.209,9.4a2.009,2.009,0,0,0-1.487.637,4.725,4.725,0,0,0-1.01,1.64,10.871,10.871,0,0,0-.573,2.149,13.528,13.528,0,0,0-.186,2.162,5.339,5.339,0,0,0,.437,2.432,1.416,1.416,0,0,0,1.326.823" fill="#9ea700"/>
        <path id="Caminho_345" data-name="Caminho 345" d="M64.476,21.6a3.729,3.729,0,0,1-2.522-.81,3.261,3.261,0,0,1-.939-2.6q0-.593.1-1.589t.3-2.374q.154-1.133.322-2.356t.341-2.457q.1-.747.2-1.471a1.081,1.081,0,0,1,1.072-.936h.463A3.2,3.2,0,0,1,65.97,8c.171.2.15.216.147.245q-.1.7-.2,1.493t-.212,1.6c-.072.537-.143,1.055-.212,1.557s-.128.959-.181,1.371q-.153,1.17-.224,1.943t-.071,1.145a1.5,1.5,0,0,0,.295,1.023,1.038,1.038,0,0,0,.811.328,2.022,2.022,0,0,0,1.062-.347,5.524,5.524,0,0,0,1.106-.933,8.192,8.192,0,0,0,1-1.319l1.12-8.162a1.082,1.082,0,0,1,1.073-.936h1.7a1.083,1.083,0,0,1,1.073,1.229l-1.305,9.637A4.008,4.008,0,0,1,68.98,21.34l.142-2.522A7.057,7.057,0,0,1,67.1,20.8a4.722,4.722,0,0,1-2.625.8" fill="#9ea700"/>
        <path id="Caminho_346" data-name="Caminho 346" d="M75.426,21.477,77.672,4.8A4.461,4.461,0,0,1,82.092.94L79.834,17.626a4.447,4.447,0,0,1-4.408,3.851" fill="#9ea700"/>
        <path id="Caminho_347" data-name="Caminho 347" d="M87.276,21.7a5.147,5.147,0,0,1-2.985-.8,4.654,4.654,0,0,1-1.763-2.091,7.144,7.144,0,0,1-.554-2.838,10.185,10.185,0,0,1,1.068-4.607A8.042,8.042,0,0,1,85.88,8.134,7.257,7.257,0,0,1,89.9,6.976a5.183,5.183,0,0,1,2.245.43,3.083,3.083,0,0,1,1.338,1.165,3.141,3.141,0,0,1,.444,1.66,4.4,4.4,0,0,1-.63,2.342,6.041,6.041,0,0,1-1.725,1.8,11.247,11.247,0,0,1-2.515,1.3,19.74,19.74,0,0,1-2.992.855V16.9a2.567,2.567,0,0,0,.534,1.532,1.913,1.913,0,0,0,1.538.553,4.162,4.162,0,0,0,1.467-.29,7.066,7.066,0,0,0,1.473-.759,5.525,5.525,0,0,0,1.151-1l.432.824a1.726,1.726,0,0,1-.5,2.187h0a8.484,8.484,0,0,1-1.5.907,9.321,9.321,0,0,1-1.705.618,6.8,6.8,0,0,1-1.679.225m-1.105-7.27a3.738,3.738,0,0,0,1.416-.354,5.438,5.438,0,0,0,1.331-.862A4.461,4.461,0,0,0,89.9,12a2.879,2.879,0,0,0,.373-1.409,1.559,1.559,0,0,0-.27-1.029,1.09,1.09,0,0,0-.862-.309,1.3,1.3,0,0,0-.888.36,6.532,6.532,0,0,0-.824.927A5.368,5.368,0,0,0,86.5,12.5a10.693,10.693,0,0,0-.328,1.93" fill="#9ea700"/>
      </g>
    </g>
    <g id="Grupo_40" data-name="Grupo 40">
      <line id="Linha_13" data-name="Linha 13" y2="25.686" transform="translate(104.914 0.334)" fill="none" stroke="#4d4d4d" stroke-width="1"/>
      <g id="Grupo_39" data-name="Grupo 39">
        <path id="Caminho_348" data-name="Caminho 348" d="M115.755,22.017V4H126.1V5.671h-8.34v6.338h6v1.335h-6v7.005h9.007v1.668Z" fill="#4d4d4d"/>
        <path id="Caminho_349" data-name="Caminho 349" d="M128.765,22.017V8.673h1.668v1.7a11.606,11.606,0,0,1,1.277-.8,11.106,11.106,0,0,1,1.75-.768,6.381,6.381,0,0,1,1.937-.354,3.626,3.626,0,0,1,3.123,1.158,7,7,0,0,1,.92,4.146v8.256h-2V13.763a5.457,5.457,0,0,0-.559-2.842,2.384,2.384,0,0,0-2.267-.795,4.369,4.369,0,0,0-1.318.251,8.406,8.406,0,0,0-1.365.61,8.683,8.683,0,0,0-1.163.766V22.017Z" fill="#4d4d4d"/>
        <path id="Caminho_350" data-name="Caminho 350" d="M147.754,22.423A5.341,5.341,0,0,1,143.4,20.6a7.7,7.7,0,0,1-1.516-5.065,8.722,8.722,0,0,1,.7-3.6,5.716,5.716,0,0,1,2.05-2.474,5.832,5.832,0,0,1,3.287-.916,4.852,4.852,0,0,1,1.959.334A4.268,4.268,0,0,1,151.4,9.911a4.785,4.785,0,0,1,.995,1.613,6.224,6.224,0,0,1,.382,2.092q0,.631-.012,1.135a6.353,6.353,0,0,1-.085.928h-9.607l.17-1.335h7.666a6.882,6.882,0,0,0-.2-2.232,3.029,3.029,0,0,0-.976-1.577,2.941,2.941,0,0,0-1.929-.582,3.631,3.631,0,0,0-2.087.625,4.029,4.029,0,0,0-1.437,1.995,9.617,9.617,0,0,0-.455,3.591,6.144,6.144,0,0,0,.643,2.778,3.5,3.5,0,0,0,1.565,1.51,5.128,5.128,0,0,0,2.232.467,6.088,6.088,0,0,0,1.328-.158,9.637,9.637,0,0,0,1.334-.394,5.165,5.165,0,0,0,.977-.467l.412,1.286a4.05,4.05,0,0,1-1.188.643,9.475,9.475,0,0,1-1.644.437A9.941,9.941,0,0,1,147.754,22.423Z" fill="#4d4d4d"/>
        <path id="Caminho_351" data-name="Caminho 351" d="M155.119,22.017V8.673h1.708l.123,1.9.17.84V22.017Zm1.742-10.167-.144-1.292a3.535,3.535,0,0,1,.838-.825,7.153,7.153,0,0,1,1.507-.874,4.427,4.427,0,0,1,1.794-.382,7.282,7.282,0,0,1,.772.035,2.018,2.018,0,0,1,.5.108v1.843a2.658,2.658,0,0,0-.532-.192,4.536,4.536,0,0,0-1.1-.1,4.12,4.12,0,0,0-1.525.281,5.894,5.894,0,0,0-1.256.67A5.726,5.726,0,0,0,156.861,11.85Z" fill="#4d4d4d"/>
        <path id="Caminho_352" data-name="Caminho 352" d="M168.3,28a8.037,8.037,0,0,1-4.05-.885,3.067,3.067,0,0,1-1.525-2.871,2.578,2.578,0,0,1,.359-1.352,3.8,3.8,0,0,1,.856-1.005,3.886,3.886,0,0,1,.915-.586l1.316.191a7.141,7.141,0,0,0-.646.527,2.966,2.966,0,0,0-.622.807A2.433,2.433,0,0,0,164.639,24a2.612,2.612,0,0,0,.407,1.52,2.346,2.346,0,0,0,1.232.861,6.743,6.743,0,0,0,2.094.275,8.549,8.549,0,0,0,2.177-.269,4.131,4.131,0,0,0,1.675-.825,1.791,1.791,0,0,0,.646-1.418,2.156,2.156,0,0,0-.329-1.244,1.938,1.938,0,0,0-1.1-.706,6.345,6.345,0,0,0-2.087-.181h-1.795c-.462-.046-.875-.066-1.238-.106s-.676-.084-.939-.132a.692.692,0,0,1-.215-.089,1.073,1.073,0,0,0-.215-.1,1.656,1.656,0,0,1-1.119-.9,3.332,3.332,0,0,1-.245-1.256,1.984,1.984,0,0,1,.263-.952,4.361,4.361,0,0,1,.694-.932,6.009,6.009,0,0,1,.933-.8l1.244.359a2.936,2.936,0,0,0-.879.706,1.651,1.651,0,0,0-.485,1.136,1.366,1.366,0,0,0,.431,1.16,2.05,2.05,0,0,0,1.483.233h2.9a12.445,12.445,0,0,1,2.321.366,3.408,3.408,0,0,1,1.388.747,2.52,2.52,0,0,1,.676,1.059,4.039,4.039,0,0,1,.185,1.22,3.26,3.26,0,0,1-.5,1.771,4.277,4.277,0,0,1-1.381,1.345,7.085,7.085,0,0,1-2.052.85A10.275,10.275,0,0,1,168.3,28Zm-.048-10.479a6,6,0,0,1-2.59-.545,4.483,4.483,0,0,1-1.83-1.531,4.015,4.015,0,0,1-.676-2.327,4.479,4.479,0,0,1,.7-2.6A4.256,4.256,0,0,1,165.728,9a6.818,6.818,0,0,1,2.6-.526,6.49,6.49,0,0,1,2.572.43,3.982,3.982,0,0,1,2.62,3.972,4.243,4.243,0,0,1-2.608,4.109A6.462,6.462,0,0,1,168.252,17.521Zm.024-1.292a3.643,3.643,0,0,0,2.381-.754,3.089,3.089,0,0,0,.921-2.524,3.085,3.085,0,0,0-.844-2.381,3.283,3.283,0,0,0-2.314-.777,4.717,4.717,0,0,0-1.621.3,2.541,2.541,0,0,0-1.233.987,3.441,3.441,0,0,0-.472,1.944,3.322,3.322,0,0,0,.814,2.284A2.988,2.988,0,0,0,168.276,16.229Zm3.343-5.888-.744-.821a3.074,3.074,0,0,1,1.206-.571,6.42,6.42,0,0,1,1.873-.276h1.18v1.668Z" fill="#4d4d4d"/>
        <path id="Caminho_353" data-name="Caminho 353" d="M178.014,5.749a1.27,1.27,0,0,1-.892-.347,1.251,1.251,0,0,1-.377-.969,1.43,1.43,0,0,1,.216-.783,1.574,1.574,0,0,1,.544-.533,1.334,1.334,0,0,1,.676-.191,1.168,1.168,0,0,1,.957.377,1.427,1.427,0,0,1,.311.939,1.436,1.436,0,0,1-.437,1.094A1.409,1.409,0,0,1,178.014,5.749Zm-.878,16.268V8.673h2V22.017Z" fill="#4d4d4d"/>
        <path id="Caminho_354" data-name="Caminho 354" d="M185.765,22.162a4.75,4.75,0,0,1-2.087-.442,3.4,3.4,0,0,1-1.436-1.275,3.675,3.675,0,0,1-.52-1.991,3.448,3.448,0,0,1,.735-2.231,4.77,4.77,0,0,1,2.136-1.43,9.615,9.615,0,0,1,1.722-.472,18.139,18.139,0,0,1,1.861-.246q.915-.072,1.609-.072l.43.551-.43.694q-.479,0-1.232.059t-1.538.2a6.684,6.684,0,0,0-1.345.365,3.657,3.657,0,0,0-1.52.957,2.166,2.166,0,0,0-.514,1.483,2.409,2.409,0,0,0,.634,1.717,2.731,2.731,0,0,0,2.069.676,5.334,5.334,0,0,0,1.586-.228,6.4,6.4,0,0,0,1.238-.508,2.953,2.953,0,0,0,.646-.437l.43.383-.311.79a5.859,5.859,0,0,1-1.633.981A6.281,6.281,0,0,1,185.765,22.162Zm6.049-.145h-2V20.081l.334-.024V12.616a6.269,6.269,0,0,0-1.133-2.046,4.263,4.263,0,0,0-2.339-.514,6.311,6.311,0,0,0-1.417.173,8.853,8.853,0,0,0-1.382.437,4.931,4.931,0,0,0-.981.514l-.478-1.387a7.09,7.09,0,0,1,.951-.479,11.672,11.672,0,0,1,1.728-.592,7.989,7.989,0,0,1,2.082-.269,7.181,7.181,0,0,1,2.386.359,2.97,2.97,0,0,1,1.591,1.28,5.93,5.93,0,0,1,.66,2.6Z" fill="#4d4d4d"/>
        <path id="Caminho_355" data-name="Caminho 355" d="M202.776,22.162a13.242,13.242,0,0,1-2.189-.173,12.58,12.58,0,0,1-1.783-.419,4.654,4.654,0,0,1-1.076-.461l.478-1.626a6.557,6.557,0,0,0,1.2.538,10.657,10.657,0,0,0,1.567.406,9.218,9.218,0,0,0,1.681.156,5.281,5.281,0,0,0,2.936-.712,2.43,2.43,0,0,0,1.083-2.183A2.607,2.607,0,0,0,206.138,16a4.879,4.879,0,0,0-1.5-1.19q-.957-.521-2.2-1.1a14.17,14.17,0,0,1-2.231-1.268,6.713,6.713,0,0,1-1.752-1.74,3.985,3.985,0,0,1-.682-2.3,3.958,3.958,0,0,1,.508-2.076,3.972,3.972,0,0,1,1.352-1.357,6.086,6.086,0,0,1,1.854-.742A9.251,9.251,0,0,1,203.518,4a9.466,9.466,0,0,1,2.716.317,5.693,5.693,0,0,1,1.5.64l-.407,1.555a5.986,5.986,0,0,0-1.543-.688,7.989,7.989,0,0,0-2.261-.269,6.142,6.142,0,0,0-1.83.275,3.428,3.428,0,0,0-1.454.849,1.988,1.988,0,0,0-.568,1.46,2.891,2.891,0,0,0,.46,1.668,4.343,4.343,0,0,0,1.346,1.221q.885.544,2.142,1.154.885.418,1.77.9a9.764,9.764,0,0,1,1.615,1.1,5.028,5.028,0,0,1,1.172,1.418,3.8,3.8,0,0,1,.443,1.866,4.378,4.378,0,0,1-.742,2.608,4.474,4.474,0,0,1-2.057,1.561A8.224,8.224,0,0,1,202.776,22.162Z" fill="#4d4d4d"/>
        <path id="Caminho_356" data-name="Caminho 356" d="M215.84,22.162a5.837,5.837,0,0,1-2.7-.574,4.919,4.919,0,0,1-1.807-1.567,6.706,6.706,0,0,1-1-2.273,10.985,10.985,0,0,1-.3-2.692,7.652,7.652,0,0,1,.844-3.589,5.537,5.537,0,0,1,2.165-2.231,6.132,6.132,0,0,1,3.045-.759,5.14,5.14,0,0,1,5.234,3.535,9.772,9.772,0,0,1,.556,3.475,7.992,7.992,0,0,1-.82,3.619,5.537,5.537,0,0,1-2.135,2.273A6.023,6.023,0,0,1,215.84,22.162Zm.047-1.388a3.4,3.4,0,0,0,2.949-1.429,6.564,6.564,0,0,0,1.047-3.93,8.733,8.733,0,0,0-.395-2.781,4.369,4.369,0,0,0-1.256-1.992,3.238,3.238,0,0,0-2.177-.754,3.453,3.453,0,0,0-2.949,1.328,6.228,6.228,0,0,0-1.1,3.864,9.261,9.261,0,0,0,.407,2.805,4.671,4.671,0,0,0,1.262,2.076A3.211,3.211,0,0,0,215.887,20.774Z" fill="#4d4d4d"/>
        <path id="Caminho_357" data-name="Caminho 357" d="M224.172,22.017V2.669h2V22.017Z" fill="#4d4d4d"/>
        <path id="Caminho_358" data-name="Caminho 358" d="M232.922,22.162a4.751,4.751,0,0,1-2.088-.442,3.4,3.4,0,0,1-1.435-1.275,3.676,3.676,0,0,1-.521-1.991,3.443,3.443,0,0,1,.736-2.231,4.766,4.766,0,0,1,2.135-1.43,9.65,9.65,0,0,1,1.723-.472,18.12,18.12,0,0,1,1.86-.246q.915-.072,1.609-.072l.431.551-.431.694q-.479,0-1.232.059t-1.537.2a6.7,6.7,0,0,0-1.346.365,3.652,3.652,0,0,0-1.519.957,2.166,2.166,0,0,0-.515,1.483,2.414,2.414,0,0,0,.634,1.717,2.735,2.735,0,0,0,2.07.676,5.327,5.327,0,0,0,1.585-.228,6.4,6.4,0,0,0,1.238-.508,2.953,2.953,0,0,0,.646-.437l.431.383-.311.79a5.875,5.875,0,0,1-1.633.981A6.284,6.284,0,0,1,232.922,22.162Zm5.928-.145h-2V12.662a2.263,2.263,0,0,0-.8-2.046,4.518,4.518,0,0,0-2.415-.514,6.728,6.728,0,0,0-1.464.173,9.411,9.411,0,0,0-1.427.437,5.188,5.188,0,0,0-1.013.514l-.494-1.387a7.6,7.6,0,0,1,.982-.479,12.379,12.379,0,0,1,1.785-.592,8.553,8.553,0,0,1,2.15-.269,7.646,7.646,0,0,1,2.465.359,3.053,3.053,0,0,1,1.643,1.28,4.829,4.829,0,0,1,.587,2.6Z" fill="#4d4d4d"/>
        <path id="Caminho_359" data-name="Caminho 359" d="M241.852,22.017V8.673h1.709l.122,1.9.171.84V22.017Zm2.075-10.167-.143-1.292a3.507,3.507,0,0,1,.837-.825,7.161,7.161,0,0,1,1.508-.874,4.427,4.427,0,0,1,1.794-.382,7.3,7.3,0,0,1,.772.035,2.029,2.029,0,0,1,.5.108v1.843a2.683,2.683,0,0,0-.532-.192,4.542,4.542,0,0,0-1.1-.1,4.12,4.12,0,0,0-1.525.281,5.87,5.87,0,0,0-1.256.67A5.792,5.792,0,0,0,243.927,11.85Z" fill="#4d4d4d"/>
      </g>
    </g>
  </g>
</svg>
