<?xml version="1.0" encoding="UTF-8"?>
<svg id="Camada_2" data-name="Camada 2" xmlns="http://www.w3.org/2000/svg" xmlns:xlink="http://www.w3.org/1999/xlink" viewBox="0 0 170 47.87">
  <defs>
    <style>
      .cls-1 {
        fill: none;
      }

      .cls-1, .cls-2 {
        stroke-width: 0px;
      }

      .cls-3 {
        clip-path: url(#clippath-1);
      }

      .cls-2 {
        fill: #fff;
      }

      .cls-4 {
        clip-path: url(#clippath);
      }
    </style>
    <clipPath id="clippath">
      <rect class="cls-1" y="0" width="170" height="47.87"/>
    </clipPath>
    <clipPath id="clippath-1">
      <rect class="cls-1" y="0" width="170" height="47.87"/>
    </clipPath>
  </defs>
  <g id="Camada_1-2" data-name="Camada 1">
    <g id="LOGO_WHITE" data-name="LOGO WHITE">
      <g class="cls-4">
        <g class="cls-3">
          <path class="cls-2" d="m66.51,44.57h0c.67-.18,1.36-.54,2.07-1.07.71-.53,1.39-1.15,2.02-1.88.64-.73,1.17-1.47,1.61-2.23.44-.76.72-1.47.82-2.14.37-1.73.73-3.67,1.07-5.8.34-2.13.67-4.36.98-6.7.31-2.34.61-4.7.91-7.08.29-2.38.58-4.69.86-6.93,0-.02,0-.05,0-.07.44-3.53,3.44-6.18,7-6.18h.82l-3.67,26.44c-.23,1.8-.45,3.24-.64,4.33-.19,1.09-.34,1.83-.45,2.22-.6,2.21-1.5,4-2.68,5.37-1.18,1.36-2.61,2.38-4.27,3.04-.83.33-1.68.75-2.61.77-2.21.07-3.24-.56-3.84-2.1"/>
          <path class="cls-2" d="m94.39,39.57c-2.08,0-3.8-.46-5.17-1.39-1.37-.93-2.39-2.22-3.07-3.86-.67-1.64-1.01-3.54-1.01-5.69,0-2.79.56-5.38,1.67-7.78,1.1-2.39,2.71-4.29,4.82-5.71,2.12-1.43,4.61-2.14,7.49-2.14,2.08,0,3.79.45,5.15,1.36,1.35.91,2.37,2.18,3.03,3.81.67,1.63,1,3.54,1,5.73,0,2.77-.54,5.37-1.63,7.78-1.1,2.39-2.7,4.3-4.81,5.74-2.11,1.44-4.6,2.16-7.48,2.16m.98-4.44c1.05,0,1.95-.36,2.7-1.08.74-.72,1.35-1.66,1.81-2.83s.8-2.44,1.01-3.81c.21-1.37.31-2.71.31-4.01,0-1.16-.09-2.2-.27-3.1-.18-.91-.5-1.62-.96-2.15-.46-.53-1.1-.79-1.9-.79-1.04,0-1.93.38-2.68,1.15-.75.77-1.36,1.75-1.82,2.96-.47,1.21-.81,2.5-1.03,3.88-.23,1.38-.34,2.68-.34,3.9,0,1.94.26,3.4.79,4.39.53.99,1.32,1.49,2.39,1.49"/>
          <path class="cls-2" d="m116.61,39.66c-1.9,0-3.42-.49-4.55-1.46-1.13-.98-1.7-2.54-1.7-4.69,0-.71.06-1.67.19-2.87.12-1.2.3-2.63.53-4.29.19-1.36.38-2.78.58-4.25.2-1.47.41-2.95.62-4.44.13-.9.25-1.78.37-2.65.13-.97.96-1.69,1.94-1.69h3.06c1.18,0,2.1,1.04,1.94,2.22,0,0,0,.02,0,.03-.12.84-.24,1.74-.36,2.7-.12.95-.25,1.91-.38,2.88-.13.97-.26,1.91-.38,2.81-.12.91-.23,1.73-.33,2.48-.18,1.41-.32,2.58-.41,3.51-.09.93-.13,1.62-.13,2.07,0,.84.18,1.45.53,1.85.36.4.85.59,1.47.59s1.24-.21,1.92-.63c.67-.42,1.34-.98,2-1.69.66-.7,1.26-1.5,1.8-2.38l2.02-14.74c.13-.97.96-1.69,1.94-1.69h3.07c1.18,0,2.1,1.04,1.94,2.22l-2.36,17.4c-.49,3.59-3.55,6.26-7.17,6.26h0l.26-4.55c-.96,1.43-2.18,2.62-3.65,3.58-1.47.96-3.05,1.44-4.74,1.44"/>
          <path class="cls-2" d="m136.38,39.18l4.06-30.11c.54-4,3.95-6.98,7.98-6.98l-4.08,30.13c-.54,3.98-3.94,6.95-7.96,6.95"/>
          <path class="cls-2" d="m157.99,39.57c-2.2,0-4-.48-5.39-1.44-1.46-.96-2.52-2.22-3.18-3.78-.67-1.56-1-3.26-1-5.12.02-3.04.66-5.81,1.93-8.32,1.25-2.49,2.96-4.44,5.12-5.83s4.58-2.09,7.26-2.09c1.63,0,2.98.26,4.05.78,1.08.52,1.88,1.22,2.42,2.1.53.88.8,1.88.8,3,0,1.58-.38,2.99-1.14,4.23-.76,1.24-1.8,2.32-3.11,3.24-1.32.92-2.83,1.7-4.54,2.35-1.71.64-3.51,1.16-5.4,1.55v.67c.08,1.18.4,2.1.96,2.77.57.67,1.49,1,2.78,1,.84,0,1.72-.17,2.65-.52.93-.35,1.82-.81,2.66-1.37.84-.56,1.54-1.16,2.08-1.8l.73,1.39c.72,1.37.39,3.09-.83,4.03,0,0-.02.01-.02.02-.81.62-1.72,1.17-2.71,1.64-.99.47-2.02.84-3.08,1.11-1.06.27-2.07.41-3.03.41m-2.21-13.13c.84-.03,1.69-.24,2.56-.64.87-.39,1.67-.91,2.4-1.56.74-.64,1.33-1.37,1.78-2.18.45-.81.67-1.66.67-2.54s-.16-1.49-.49-1.86c-.32-.37-.84-.56-1.56-.56-.59,0-1.12.22-1.6.65-.48.43-.98.99-1.49,1.67-.79,1.04-1.35,2.22-1.68,3.53-.33,1.32-.53,2.48-.59,3.48"/>
          <path class="cls-2" d="m53.19,0h-19.13l-7.51,19.34,10.96.74c1.33.09,2.14,1.49,1.56,2.69l-12.21,25.1h10.38c8.81,0,15.96-7.14,15.96-15.96V0Z"/>
          <path class="cls-2" d="m27.74,28.16l-12.06-.81c-1.23-.08-2.05-1.32-1.64-2.49L23.31,0h-7.64C7.02,0,0,7.02,0,15.68v32.2h25.01l2.73-19.71Z"/>
        </g>
      </g>
    </g>
  </g>
</svg>